<?xml version="1.0" encoding="utf-8"?>
<!-- Generator: Adobe Illustrator 26.3.1, SVG Export Plug-In . SVG Version: 6.00 Build 0)  -->
<svg version="1.1" id="レイヤー_1" xmlns="http://www.w3.org/2000/svg" xmlns:xlink="http://www.w3.org/1999/xlink" x="0px"
	 y="0px" viewBox="0 0 841.9 595.3" style="enable-background:new 0 0 841.9 595.3;" xml:space="preserve">
<style type="text/css">
	.st0{fill:#EDADB5;stroke:#EDADB5;stroke-width:5;stroke-miterlimit:10;}
	.st1{fill:#FFFFFF;}
</style>
<g>
	<path class="st0" d="M293,385.6c1.7-1.7,2.6-2.4,4.1-2.4c2.1,0,3.3,1.9,3.3,3.3c0,2.6-1.4,4.5-3.8,7.6c-5,6.4-15.3,15.8-30.3,15.8
		c-15.8,0-23.2-10.7-23.2-26.5c0-13.6,3.8-34.9,5.7-44.2c-12.2,0-18.6,5.5-24.6,16.7c-15,28.7-28.4,55.2-62.3,55.2
		c-21.5,0-37.5-13.4-37.5-33.4c0-22.4,23.4-32.7,33.2-32.7c2.4,0,3.3,1.4,3.3,3.1c0,2.9-4.3,6.2-4.3,11.7c0,7.4,4.1,12.4,13.8,12.4
		c14.6,0,28.2-22.7,39.4-40.8c13.4-21.7,26.5-46.8,41.1-59.9c-8.4-2.6-19.6-4.8-31-4.8c-13.6,0-23.2,8.6-23.2,17.4
		c0,6.9,3.8,10.5,10,10.5c3.8,0,5.5-2.4,7.2-2.4c1.4,0,2.6,1,2.6,2.6c0,8.8-11.5,24.1-28.2,24.1c-14.8,0-27.2-11-27.2-27.7
		c0-25.8,24.8-40.8,51.8-40.8c25.5,0,39.6,6.4,51.6,6.4c19.6,0,30.1-3.8,33.9-3.8c3.1,0,4.3,1.9,4.3,4.1c0,3.3-3.8,6.7-9.6,25.8
		c-6.2,20.3-17.2,70-17.2,94.3c0,8.4,2.6,13.4,7.9,13.4C288,390.7,289.9,388.8,293,385.6z M252.9,324.3c4.1-17.7,12.7-37,17.9-48.7
		c-14.3,11.7-28.4,36.8-33.4,48.7H252.9z"/>
	<path class="st0" d="M329.1,343.9c3.1-3.3,11.9-9.6,22.7-9.6c15,0,25.1,6.7,25.1,24.4c0,23.2-16.5,51.3-49.7,51.3
		c-24.4,0-35.3-12.7-35.3-30.8c0-22.9,16.5-49.9,16.5-80.9c0-7.9-4.1-11.7-9.1-11.7c-2.4,0-3.6-1-3.6-2.9c0-5,12.7-12.9,26.3-12.9
		c12.7,0,20.3,6.7,20.3,18.6S331.2,332.9,329.1,343.9z M327.9,399c11.7,0,18.6-31.5,18.6-41.8c0-6-3.3-8.6-7.6-8.6
		c-3.8,0-8.6,2.6-11.2,10.7c-3.8,11.7-6.4,24.4-6.4,31.3C321.2,395.4,323.3,399,327.9,399z"/>
	<path class="st0" d="M461.3,361.3c0,26.7-17,49.7-46.3,49.7c-21,0-34.6-12.2-34.6-31.3c0-23.2,18.4-46.3,51.1-46.3
		C449.2,333.4,461.3,344.8,461.3,361.3z M438.9,366.3c-7.4-2.9-9.6-5.5-9.6-9.8c0-6,3.6-7.9,3.6-9.3c0-1.2-0.7-1.9-2.1-1.9
		c-1,0-3.3,0.7-6.7,3.3c-6,4.8-11.7,13.6-11.7,27.2c0,10.7,6.2,17.7,15.5,17.7c9.6,0,15.8-9.8,15.8-18.1
		C443.7,371.3,442.2,367.7,438.9,366.3z"/>
	<path class="st0" d="M519.8,395.4c0,0-14.6,14.6-36.1,14.6c-11.9,0-18.9-8.6-18.9-18.4c0-14.8,8.1-32.2,8.1-40.8
		c0-4.1-1.7-4.5-1.7-7.6c0-5.3,12.9-8.8,26.7-8.8c5.3,0,8.1,2.1,8.1,6.2c0,11-8.8,27-8.8,44.4c0,3.6,2.4,6,5.7,6
		c5.3,0,11.2-4.1,14.3-9.8c5.3-9.3,8.4-21.5,8.4-30.3c0-4.1-1.7-4.5-1.7-7.6c0-5.3,12.9-8.8,26.7-8.8c5.3,0,8.1,2.1,8.1,6.2
		c0,9.3-8.4,27.7-8.4,40.4c0,6.2,3.3,9.8,7.6,9.8c4.1,0,6-1.9,9.1-5c1.7-1.7,2.6-2.4,4.1-2.4c2.1,0,3.3,1.9,3.3,3.3
		c0,2.6-1.4,4.5-3.8,7.6c-5,6.4-15,15.8-30.1,15.8C522,410,519.8,395.4,519.8,395.4z"/>
	<path class="st0" d="M605.8,353.9c-1.9,6.9-5,19.1-5,27c0,7.2,3.6,9.8,9.3,9.8c6.9,0,14.3-10,17.7-10c1.9,0,3.1,1.4,3.1,2.9
		c0,6.9-20.5,26.5-38.7,26.5c-17.2,0-24.6-10.3-24.6-22.9c0-15.3,7.4-27.2,7.4-39.2c0-3.1-6.4-1.2-6.4-5.5c0-2.4,1.4-6.9,4.1-6.9
		c12.7,0,24.4-12.4,30.6-22.4c2.4-3.8,4.3-5.3,6.4-5.3c2.6,0,3.8,1.9,3.8,3.8c0,5.3-3.3,15-3.3,19.1c0,3.1,1,4.8,8.1,4.8
		c1.9,0,3.3,0.7,3.3,2.6c0,4.8-2.6,8.1-5.5,8.1C610.1,346.2,607.5,348.2,605.8,353.9z"/>
</g>
<g>
	<path class="st1" d="M272,372.6c1.7-1.7,2.6-2.4,4.1-2.4c2.1,0,3.3,1.9,3.3,3.3c0,2.6-1.4,4.5-3.8,7.6c-5,6.4-15.3,15.8-30.3,15.8
		c-15.8,0-23.2-10.7-23.2-26.5c0-13.6,3.8-34.9,5.7-44.2c-12.2,0-18.6,5.5-24.6,16.7c-15,28.7-28.4,55.2-62.3,55.2
		c-21.5,0-37.5-13.4-37.5-33.4c0-22.4,23.4-32.7,33.2-32.7c2.4,0,3.3,1.4,3.3,3.1c0,2.9-4.3,6.2-4.3,11.7c0,7.4,4.1,12.4,13.8,12.4
		c14.6,0,28.2-22.7,39.4-40.8c13.4-21.7,26.5-46.8,41.1-59.9c-8.4-2.6-19.6-4.8-31-4.8c-13.6,0-23.2,8.6-23.2,17.4
		c0,6.9,3.8,10.5,10,10.5c3.8,0,5.5-2.4,7.2-2.4c1.4,0,2.6,1,2.6,2.6c0,8.8-11.5,24.1-28.2,24.1c-14.8,0-27.2-11-27.2-27.7
		c0-25.8,24.8-40.8,51.8-40.8c25.5,0,39.6,6.4,51.6,6.4c19.6,0,30.1-3.8,33.9-3.8c3.1,0,4.3,1.9,4.3,4.1c0,3.3-3.8,6.7-9.6,25.8
		c-6.2,20.3-17.2,70-17.2,94.3c0,8.4,2.6,13.4,7.9,13.4C267,377.7,268.9,375.8,272,372.6z M231.9,311.3c4.1-17.7,12.7-37,17.9-48.7
		c-14.3,11.7-28.4,36.8-33.4,48.7H231.9z"/>
	<path class="st1" d="M314,330.9c3.1-3.3,11.9-9.6,22.7-9.6c15,0,25.1,6.7,25.1,24.4c0,23.2-16.5,51.3-49.7,51.3
		c-24.4,0-35.3-12.7-35.3-30.8c0-22.9,16.5-49.9,16.5-80.9c0-7.9-4.1-11.7-9.1-11.7c-2.4,0-3.6-1-3.6-2.9c0-5,12.7-12.9,26.3-12.9
		c12.7,0,20.3,6.7,20.3,18.6C327.2,288.4,316.2,319.9,314,330.9z M312.8,386c11.7,0,18.6-31.5,18.6-41.8c0-6-3.3-8.6-7.6-8.6
		c-3.8,0-8.6,2.6-11.2,10.7c-3.8,11.7-6.4,24.4-6.4,31.3C306.1,382.4,308.3,386,312.8,386z"/>
	<path class="st1" d="M446.3,348.3c0,26.7-17,49.7-46.3,49.7c-21,0-34.6-12.2-34.6-31.3c0-23.2,18.4-46.3,51.1-46.3
		C434.1,320.4,446.3,331.8,446.3,348.3z M423.9,353.3c-7.4-2.9-9.6-5.5-9.6-9.8c0-6,3.6-7.9,3.6-9.3c0-1.2-0.7-1.9-2.1-1.9
		c-1,0-3.3,0.7-6.7,3.3c-6,4.8-11.7,13.6-11.7,27.2c0,10.7,6.2,17.7,15.5,17.7c9.6,0,15.8-9.8,15.8-18.1
		C428.6,358.3,427.2,354.7,423.9,353.3z"/>
	<path class="st1" d="M504.8,382.4c0,0-14.6,14.6-36.1,14.6c-11.9,0-18.9-8.6-18.9-18.4c0-14.8,8.1-32.2,8.1-40.8
		c0-4.1-1.7-4.5-1.7-7.6c0-5.3,12.9-8.8,26.7-8.8c5.3,0,8.1,2.1,8.1,6.2c0,11-8.8,27-8.8,44.4c0,3.6,2.4,6,5.7,6
		c5.3,0,11.2-4.1,14.3-9.8c5.3-9.3,8.4-21.5,8.4-30.3c0-4.1-1.7-4.5-1.7-7.6c0-5.3,12.9-8.8,26.7-8.8c5.3,0,8.1,2.1,8.1,6.2
		c0,9.3-8.4,27.7-8.4,40.4c0,6.2,3.3,9.8,7.6,9.8c4.1,0,6-1.9,9.1-5c1.7-1.7,2.6-2.4,4.1-2.4c2.1,0,3.3,1.9,3.3,3.3
		c0,2.6-1.4,4.5-3.8,7.6c-5,6.4-15,15.8-30.1,15.8C507,397,504.8,382.4,504.8,382.4z"/>
	<path class="st1" d="M590.8,340.9c-1.9,6.9-5,19.1-5,27c0,7.2,3.6,9.8,9.3,9.8c6.9,0,14.3-10,17.7-10c1.9,0,3.1,1.4,3.1,2.9
		c0,6.9-20.5,26.5-38.7,26.5c-17.2,0-24.6-10.3-24.6-22.9c0-15.3,7.4-27.2,7.4-39.2c0-3.1-6.4-1.2-6.4-5.5c0-2.4,1.4-6.9,4.1-6.9
		c12.7,0,24.4-12.4,30.6-22.4c2.4-3.8,4.3-5.3,6.4-5.3c2.6,0,3.8,1.9,3.8,3.8c0,5.3-3.3,15-3.3,19.1c0,3.1,1,4.8,8.1,4.8
		c1.9,0,3.3,0.7,3.3,2.6c0,4.8-2.6,8.1-5.5,8.1C595.1,333.2,592.4,335.2,590.8,340.9z"/>
</g>
</svg>
