<?xml version="1.0" encoding="utf-8"?>
<!-- Generator: Adobe Illustrator 26.3.1, SVG Export Plug-In . SVG Version: 6.00 Build 0)  -->
<svg version="1.1" id="レイヤー_1" xmlns="http://www.w3.org/2000/svg" xmlns:xlink="http://www.w3.org/1999/xlink" x="0px"
	 y="0px" viewBox="0 0 841.9 595.3" style="enable-background:new 0 0 841.9 595.3;" xml:space="preserve">
<style type="text/css">
	.st0{fill:#EDADB5;stroke:#EDADB5;stroke-width:5;stroke-miterlimit:10;}
	.st1{fill:#FFFFFF;}
</style>
<g>
	<path class="st0" d="M245.3,198.7c0,13.4-6.7,23.2-16,23.2c-6.4,0-11.7-4.1-11.7-10.7c0-11,10.7-10.5,10.7-20.5
		c0-5.7-5-8.6-10.7-8.6c-24.4,0-46.6,40.4-46.6,86.4c0,22.7,13.6,33.4,30.8,33.4c12.7,0,22-10,27-15.3c2.1-2.4,3.8-4.1,5.5-4.1
		c1.7,0,3.1,1,3.1,2.6c0,2.1-1,4.3-2.4,7.4c-5.3,11.5-25.3,37.5-54.2,37.5c-29.1,0-49.4-15.5-49.4-55.2
		c0-59.5,42.3-106.3,81.4-106.3C231.2,168.7,245.3,179.2,245.3,198.7z"/>
	<path class="st0" d="M316.7,279.5c0,26.7-17,49.7-46.3,49.7c-21,0-34.6-12.2-34.6-31.3c0-23.2,18.4-46.3,51.1-46.3
		C304.5,251.5,316.7,263,316.7,279.5z M294.2,284.5c-7.4-2.9-9.6-5.5-9.6-9.8c0-6,3.6-7.9,3.6-9.3c0-1.2-0.7-1.9-2.1-1.9
		c-1,0-3.3,0.7-6.7,3.3c-6,4.8-11.7,13.6-11.7,27.2c0,10.7,6.2,17.7,15.5,17.7c9.6,0,15.8-9.8,15.8-18.1
		C299,289.5,297.5,285.9,294.2,284.5z"/>
	<path class="st0" d="M366.6,309.8c0-14.6,7.6-24.1,7.6-33.4c0-3.8-2.1-6.7-5.5-6.7c-4.1,0-9.8,4.1-15,14.6
		c-4.1,8.1-10.3,28.4-10.3,37.7c0,4.1-1.7,5-5.3,5c-7.2,0-16.5,1.2-20.1,1.2c-3.1,0-5-1.2-5-5.3c0-8.8,10-41.1,10-54
		c0-4.1-1.7-4.5-1.7-7.6c0-5.3,12.9-8.8,26.7-8.8c5.3,0,8.1,2.1,8.1,6.2c0,3.8-1.9,10.7-1.9,10.7c4.3-5.3,18.4-17,32.5-17
		c13.1,0,18.4,6,18.4,15c0,11-6.7,22.9-6.7,32.7c0,6.2,3.3,8.6,7.6,8.6c4.1,0,6-1.9,9.1-5c1.7-1.7,2.6-2.4,4.1-2.4
		c2.1,0,3.3,1.9,3.3,3.3c0,2.6-1.4,4.5-3.8,7.6c-5,6.4-15.3,15.8-30.3,15.8C374.9,328.2,366.6,320.1,366.6,309.8z"/>
	<path class="st0" d="M447.7,272.1c-1.9,6.9-5,19.1-5,27c0,7.2,3.6,9.8,9.3,9.8c6.9,0,14.3-10,17.7-10c1.9,0,3.1,1.4,3.1,2.9
		c0,6.9-20.5,26.5-38.7,26.5c-17.2,0-24.6-10.3-24.6-22.9c0-15.3,7.4-27.2,7.4-39.2c0-3.1-6.4-1.2-6.4-5.5c0-2.4,1.4-6.9,4.1-6.9
		c12.7,0,24.4-12.4,30.6-22.4c2.4-3.8,4.3-5.3,6.4-5.3c2.6,0,3.8,1.9,3.8,3.8c0,5.3-3.3,15-3.3,19.1c0,3.1,1,4.8,8.1,4.8
		c1.9,0,3.3,0.7,3.3,2.6c0,4.8-2.6,8.1-5.5,8.1C452,264.4,449.4,266.3,447.7,272.1z"/>
	<path class="st0" d="M533.7,328.2c-14.3,0-18.4-12.7-18.4-12.7s-12.7,12.7-30.1,12.7c-14.1,0-25.5-9.6-25.5-27.9
		c0-23.6,14.3-47.8,48.5-47.8c12.7,0,16.2,4.5,20.1,4.5c4.1,0,14.3-4.5,19.8-4.5c2.1,0,3.6,1,3.6,3.6c0,5.7-8.4,24.4-8.4,43
		c0,6.2,3.8,9.8,8.1,9.8c4.1,0,6-1.9,9.1-5c1.7-1.7,2.6-2.4,4.1-2.4c2.1,0,3.3,1.9,3.3,3.3c0,2.6-1.4,4.5-3.8,7.6
		C559,318.9,548.7,328.2,533.7,328.2z M510.3,263c-13.6,0-19.6,25.1-19.6,38.2c0,6.2,2.9,11.2,8.1,11.2c4.5,0,9.3-4.1,12.4-11.2
		c2.9-6.2,6.2-22,6.2-31.3C517.5,265.6,515.3,263,510.3,263z"/>
	<path class="st0" d="M632.3,300.7c1.9-1.7,3.6-2.9,5-2.9c1.9,0,2.9,1.4,2.9,2.9c0,2.4-1.4,4.3-5,8.1c-8.1,8.1-20.1,20.1-42.3,20.1
		s-38.2-11.7-38.2-31.8c0-24.8,19.1-45.1,49.9-45.1c18.1,0,24.8,7.6,24.8,16.7c0,9.8-6.2,15.3-14.1,15.3c-5.5,0-9.6-3.1-9.6-7.9
		c0-5.3,3.6-7.4,3.8-10.3c0-1.9-1.4-3.1-4.3-3.1c-6.9,0-17.2,12.7-17.2,29.6c0,14.1,9.1,20.5,19.1,20.5
		C617.8,312.9,626.6,305.7,632.3,300.7z"/>
	<path class="st0" d="M665.5,272.1c-1.9,6.9-5,19.1-5,27c0,7.2,3.6,9.8,9.3,9.8c6.9,0,14.3-10,17.7-10c1.9,0,3.1,1.4,3.1,2.9
		c0,6.9-20.5,26.5-38.7,26.5c-17.2,0-24.6-10.3-24.6-22.9c0-15.3,7.4-27.2,7.4-39.2c0-3.1-6.4-1.2-6.4-5.5c0-2.4,1.4-6.9,4.1-6.9
		c12.7,0,24.4-12.4,30.6-22.4c2.4-3.8,4.3-5.3,6.4-5.3c2.6,0,3.8,1.9,3.8,3.8c0,5.3-3.3,15-3.3,19.1c0,3.1,1,4.8,8.1,4.8
		c1.9,0,3.3,0.7,3.3,2.6c0,4.8-2.6,8.1-5.5,8.1C669.8,264.4,667.2,266.3,665.5,272.1z"/>
</g>
<g>
	<path class="st1" d="M226.3,185.7c0,13.4-6.7,23.2-16,23.2c-6.4,0-11.7-4.1-11.7-10.7c0-11,10.7-10.5,10.7-20.5
		c0-5.7-5-8.6-10.7-8.6c-24.4,0-46.6,40.4-46.6,86.4c0,22.7,13.6,33.4,30.8,33.4c12.7,0,22-10,27-15.3c2.1-2.4,3.8-4.1,5.5-4.1
		c1.7,0,3.1,1,3.1,2.6c0,2.1-1,4.3-2.4,7.4c-5.3,11.5-25.3,37.5-54.2,37.5c-29.1,0-49.4-15.5-49.4-55.2
		c0-59.5,42.3-106.3,81.4-106.3C212.2,155.7,226.3,166.2,226.3,185.7z"/>
	<path class="st1" d="M297.7,266.5c0,26.7-17,49.7-46.3,49.7c-21,0-34.6-12.2-34.6-31.3c0-23.2,18.4-46.3,51.1-46.3
		C285.5,238.5,297.7,250,297.7,266.5z M275.2,271.5c-7.4-2.9-9.6-5.5-9.6-9.8c0-6,3.6-7.9,3.6-9.3c0-1.2-0.7-1.9-2.1-1.9
		c-1,0-3.3,0.7-6.7,3.3c-6,4.8-11.7,13.6-11.7,27.2c0,10.7,6.2,17.7,15.5,17.7c9.6,0,15.8-9.8,15.8-18.1
		C280,276.5,278.5,272.9,275.2,271.5z"/>
	<path class="st1" d="M347.6,296.8c0-14.6,7.6-24.1,7.6-33.4c0-3.8-2.1-6.7-5.5-6.7c-4.1,0-9.8,4.1-15,14.6
		c-4.1,8.1-10.3,28.4-10.3,37.7c0,4.1-1.7,5-5.3,5c-7.2,0-16.5,1.2-20.1,1.2c-3.1,0-5-1.2-5-5.3c0-8.8,10-41.1,10-54
		c0-4.1-1.7-4.5-1.7-7.6c0-5.3,12.9-8.8,26.7-8.8c5.3,0,8.1,2.1,8.1,6.2c0,3.8-1.9,10.7-1.9,10.7c4.3-5.3,18.4-17,32.5-17
		c13.1,0,18.4,6,18.4,15c0,11-6.7,22.9-6.7,32.7c0,6.2,3.3,8.6,7.6,8.6c4.1,0,6-1.9,9.1-5c1.7-1.7,2.6-2.4,4.1-2.4
		c2.1,0,3.3,1.9,3.3,3.3c0,2.6-1.4,4.5-3.8,7.6c-5,6.4-15.3,15.8-30.3,15.8C355.9,315.2,347.6,307.1,347.6,296.8z"/>
	<path class="st1" d="M428.7,259.1c-1.9,6.9-5,19.1-5,27c0,7.2,3.6,9.8,9.3,9.8c6.9,0,14.3-10,17.7-10c1.9,0,3.1,1.4,3.1,2.9
		c0,6.9-20.5,26.5-38.7,26.5c-17.2,0-24.6-10.3-24.6-22.9c0-15.3,7.4-27.2,7.4-39.2c0-3.1-6.4-1.2-6.4-5.5c0-2.4,1.4-6.9,4.1-6.9
		c12.7,0,24.4-12.4,30.6-22.4c2.4-3.8,4.3-5.3,6.4-5.3c2.6,0,3.8,1.9,3.8,3.8c0,5.3-3.3,15-3.3,19.1c0,3.1,1,4.8,8.1,4.8
		c1.9,0,3.3,0.7,3.3,2.6c0,4.8-2.6,8.1-5.5,8.1C433,251.4,430.4,253.3,428.7,259.1z"/>
	<path class="st1" d="M514.7,315.2c-14.3,0-18.4-12.7-18.4-12.7s-12.7,12.7-30.1,12.7c-14.1,0-25.5-9.6-25.5-27.9
		c0-23.6,14.3-47.8,48.5-47.8c12.7,0,16.2,4.5,20.1,4.5c4.1,0,14.3-4.5,19.8-4.5c2.1,0,3.6,1,3.6,3.6c0,5.7-8.4,24.4-8.4,43
		c0,6.2,3.8,9.8,8.1,9.8c4.1,0,6-1.9,9.1-5c1.7-1.7,2.6-2.4,4.1-2.4c2.1,0,3.3,1.9,3.3,3.3c0,2.6-1.4,4.5-3.8,7.6
		C540,305.9,529.7,315.2,514.7,315.2z M491.3,250c-13.6,0-19.6,25.1-19.6,38.2c0,6.2,2.9,11.2,8.1,11.2c4.5,0,9.3-4.1,12.4-11.2
		c2.9-6.2,6.2-22,6.2-31.3C498.5,252.6,496.3,250,491.3,250z"/>
	<path class="st1" d="M613.3,287.7c1.9-1.7,3.6-2.9,5-2.9c1.9,0,2.9,1.4,2.9,2.9c0,2.4-1.4,4.3-5,8.1c-8.1,8.1-20.1,20.1-42.3,20.1
		s-38.2-11.7-38.2-31.8c0-24.8,19.1-45.1,49.9-45.1c18.1,0,24.8,7.6,24.8,16.7c0,9.8-6.2,15.3-14.1,15.3c-5.5,0-9.6-3.1-9.6-7.9
		c0-5.3,3.6-7.4,3.8-10.3c0-1.9-1.4-3.1-4.3-3.1c-6.9,0-17.2,12.7-17.2,29.6c0,14.1,9.1,20.5,19.1,20.5
		C598.8,299.9,607.6,292.7,613.3,287.7z"/>
	<path class="st1" d="M646.5,259.1c-1.9,6.9-5,19.1-5,27c0,7.2,3.6,9.8,9.3,9.8c6.9,0,14.3-10,17.7-10c1.9,0,3.1,1.4,3.1,2.9
		c0,6.9-20.5,26.5-38.7,26.5c-17.2,0-24.6-10.3-24.6-22.9c0-15.3,7.4-27.2,7.4-39.2c0-3.1-6.4-1.2-6.4-5.5c0-2.4,1.4-6.9,4.1-6.9
		c12.7,0,24.4-12.4,30.6-22.4c2.4-3.8,4.3-5.3,6.4-5.3c2.6,0,3.8,1.9,3.8,3.8c0,5.3-3.3,15-3.3,19.1c0,3.1,1,4.8,8.1,4.8
		c1.9,0,3.3,0.7,3.3,2.6c0,4.8-2.6,8.1-5.5,8.1C650.8,251.4,648.2,253.3,646.5,259.1z"/>
</g>
</svg>
