<?xml version="1.0" encoding="utf-8"?>
<!-- Generator: Adobe Illustrator 26.3.1, SVG Export Plug-In . SVG Version: 6.00 Build 0)  -->
<svg version="1.1" id="レイヤー_1" xmlns="http://www.w3.org/2000/svg" xmlns:xlink="http://www.w3.org/1999/xlink" x="0px"
	 y="0px" viewBox="0 0 841.9 595.3" style="enable-background:new 0 0 841.9 595.3;" xml:space="preserve">
<style type="text/css">
	.st0{fill:#ECA3AF;stroke:#ECA3AF;stroke-width:5;stroke-miterlimit:10;}
	.st1{fill:#FFFFFF;stroke:#ECA3AF;stroke-miterlimit:10;}
</style>
<g>
	<path class="st0" d="M351.5,253.8c-14.2,0-24.7-9-24.7-21.4c0-13.6,12-21,22-21c3.6,0,4.9,0.9,4.9,1.9c0,1.3-0.7,1.7-1.9,2
		c-3.3,1-6.9,4.8-6.9,9.1c0,4.9,3.6,8.5,8.8,8.5c23.1,0,16.2-57.9,26.8-64.1c-10.9,4.1-20.7,10.7-20.7,22c0,3.6,1.2,6.1,3.5,7.7
		c1.6,1,2.2,1.2,2.2,2.3c0,1-1.4,2.2-4.3,2.2c-8.4,0-19.4-6.1-19.4-16.3c0-13.9,20-18.5,35-23.7c4.2-1.4,5.6-4.5,8.4-5.2
		c4.1-1.2,7.1-1.6,9-1.6c1.7,0,2.9,0.6,2.9,2.2c0,1.4-0.9,3-3.2,8.5C387.1,182.9,395.4,253.8,351.5,253.8z"/>
	<path class="st0" d="M435.6,155.2c5.2,0,7.7,2.9,7.7,7.8c0,10.4-13.3,21.4-16.2,21.4c-1.3,0-2.2-0.7-2.2-1.9
		c0-2.6,4.6-5.6,4.6-12.9c0-2.6-1.6-3.8-1.6-6.8C427.9,158.5,430.8,155.2,435.6,155.2z"/>
	<path class="st0" d="M521.1,241.7c0-8.8,4.6-14.6,4.6-20.3c0-2.7-1.3-4.1-3.5-4.1c-2.7,0-5.9,2.5-8.8,8.1c-3,5.8-6.4,16.6-6.4,23.6
		c0,2.5-0.9,3-3,3c-4.5,0-10.1,0.7-12.6,0.7c-1.7,0-2.9-0.7-2.9-3.2c0-8.5,5.4-21.8,5.4-27.9c0-2.6-1-4.3-3.2-4.3
		c-2.6,0-6.7,2.7-10.1,8.8c-2.7,4.8-6.2,17.2-6.2,22.9c0,2.5-1,3-3.2,3c-4.3,0-10,0.7-12.2,0.7c-1.9,0-3-0.7-3-3.2
		c0-5.4,6.1-24.9,6.1-32.7c0-2.5-1-2.7-1-4.6c0-3.2,7.8-5.4,16.2-5.4c3.2,0,4.9,1.3,4.9,3.8c0,2.3-1.2,6.5-1.2,6.5
		c1.4-1.6,9-10.3,20-10.3c9,0,11.4,6.9,11.9,9.1c1.2-1.2,8.8-9.1,19.4-9.1c8.4,0,12.3,3.5,12.3,9.8c0,6.2-4.1,13.7-4.1,20.3
		c0,3.8,1.4,4.9,3.5,4.9c1.7,0,2.6-0.6,3.8-1.4c0.9-0.7,1.2-1.2,2-1.2c1,0,1.6,0.7,1.6,1.6c0,1.2-0.7,2.3-1.7,3.6
		c-3.3,4.3-8.2,8.2-15.8,8.2C525.6,252.8,521.1,247.8,521.1,241.7z"/>
	<path class="st0" d="M225.2,363.1c2.9,0,5.1-2,6.9-3.9c1.3-1.3,2-1.6,2.7-1.6c0.9,0,1.6,0.7,1.6,1.6c0,5.6-11.1,18.2-22.4,18.2
		c-9.5,0-14-6.5-14-16.1c0-9.3,5.6-30.2,9.5-44.4h-1.2c-5.5,12.6-19.7,41.4-24.6,56.3c-0.7,2.5-1.7,4.2-3.9,4.2h-11.3
		c-1.7,0-2.9-0.7-2.9-3.2c0-1.6,2.9-44.7,2.9-57.3c0,0-1,0-1.2,0c-4.3,22.7-13.3,66-44,66c-13,0-19.5-8.8-19.5-19
		c0-10.6,10.9-18.5,16.3-18.5c1.4,0,2,0.7,2,1.7c0,1.7-1,2.9-1,6.2c0,3.6,2.5,7.4,7.7,7.4c20.3,0,30.8-48.2,30.8-64
		c0-4.5-3.2-8-6.8-8c-8.1,0-19.1,12.7-19.1,24.5c0,4.8,2.7,6.9,5.8,6.9c1.9,0,3.6-1.2,4.5-1.2c1,0,1.6,0.6,1.6,1.6
		c0,4.3-7.8,14.8-18.5,14.8c-8.5,0-15-6.4-15-16.5c0-24.6,24.9-38.2,43-38.2c30.1,0,31.3,29.1,31.3,50.2c0,7.1-0.1,12.3-0.1,12.3
		s19.5-44.3,26-52.2c2.5-3.2,12.3-6.8,22-6.8c1.6,0,2.6,1,2.6,2.6c0,1.6-2.7,5.1-4.5,9.5c-4.8,12.3-12.4,49-12.4,58.7
		C220,360.2,222,363.1,225.2,363.1z"/>
	<path class="st0" d="M235.3,365.4c0-9.3,4.8-18.7,4.8-23.9c0-2.5-0.9-2.7-0.9-4.6c0-3.2,7.7-5.4,16.1-5.4c3.2,0,4.9,1.3,4.9,3.8
		c0,5.8-4.6,14.9-4.6,24.5c0,3.8,2.2,5.9,4.8,5.9c2.5,0,3.6-1.2,5.5-3c1-1,1.6-1.4,2.5-1.4c1.3,0,2,1.2,2,2c0,1.6-0.9,2.7-2.3,4.6
		c-3,3.9-9.3,9.5-18.4,9.5C240.1,377.4,235.3,372.1,235.3,365.4z M254.6,304.2c5.2,0,8.1,3.3,8.1,7.7c0,5.8-5.2,12-10.7,12
		c-4.5,0-8.1-3.5-8.1-7.8C243.9,310.3,249.1,304.2,254.6,304.2z"/>
	<path class="st0" d="M275.1,336.9c0-3.2,7.8-5.4,16.1-5.4c3.3,0,4.9,1.3,4.9,3.8c0,6.4-5.1,17.1-5.1,26c0,2.5,1.4,4.5,3.8,4.5
		c3.3,0,6.9-2.9,9.1-6.1c2.9-4.3,4.2-13,4.2-18.2c0-2.5-1-2.7-1-4.6c0-3.2,7.8-5.4,16.1-5.4c3.3,0,4.9,1.3,4.9,3.8
		c0,3.6-1.6,5.2-5.6,28.9c-3.8,22.1-8.4,54.1-34.6,54.1c-10.6,0-19.7-6.1-19.7-16.2c0-11.6,9.3-16.3,12.6-16.3c1,0,1.6,0.4,1.6,1.3
		c0,1.4-1.3,2.2-1.3,5.4c0,4.2,3.3,6.8,8.2,6.8c10.6,0,14.3-16.3,16.5-30.5c-3.5,3.3-10.6,8.7-22,8.7c-7.2,0-12.4-4.8-12.4-11.1
		c0-9.7,4.8-19.5,4.8-24.7C276.1,339.1,275.1,338.8,275.1,336.9z"/>
	<path class="st0" d="M387.8,366.6c1.7,0,2.9-0.6,4.1-1.4c1-0.7,1.3-1.2,2.2-1.2c1,0,1.4,0.7,1.4,1.6c0,1.2-0.7,2.3-1.7,3.6
		c-3.3,4.3-7.5,8.2-15,8.2c-11.4,0-12.7-8.8-12.7-8.8s-8.8,8.8-21.8,8.8c-7.2,0-11.4-5.2-11.4-11.1c0-9,4.9-19.5,4.9-24.7
		c0-2.5-1-2.7-1-4.6c0-3.2,7.8-5.4,16.2-5.4c3.2,0,4.9,1.3,4.9,3.8c0,6.7-5.4,16.3-5.4,26.9c0,2.2,1.4,3.6,3.5,3.6
		c3.2,0,6.8-2.5,8.7-5.9c3.2-5.6,5.1-13,5.1-18.4c0-2.5-1-2.7-1-4.6c0-3.2,7.8-5.4,16.2-5.4c3.2,0,4.9,1.3,4.9,3.8
		c0,5.6-5.1,16.5-5.1,25.9C384.6,364.8,386.1,366.6,387.8,366.6z"/>
	<path class="st0" d="M515.9,365.7c2.5,0,3.6-1.2,5.5-3c1-1,1.6-1.4,2.5-1.4c1.3,0,2,1.2,2,2c0,1.6-0.9,2.7-2.3,4.6
		c-3,3.9-9.3,9.5-18.4,9.5c-9.5,0-14-6.5-14-16.1c0-6.4,1.7-17.1,4.2-27.9c-5.6,0-12.9,1-17.1,5.2c-4.3,4.3-10.1,27.1-10.1,35.4
		c0,2.5-1,3-3,3c-4.5,0-13.2,0.9-15.5,0.9c-1.7,0-2.9-0.9-2.9-3.3c0-12.3,18.4-57.9,18.4-79.7c0-4.2-2.5-6.1-6.4-6.1
		c-11.1,0-22.1,15.2-22.1,26.9c0,4.8,2.7,6.9,5.8,6.9c1.9,0,3.6-1.2,4.6-1.2s1.4,0.6,1.4,1.6c0,4.3-7.8,14.8-18.4,14.8
		c-8.7,0-15.2-6.4-15.2-16.5c0-24.6,24.9-40.7,47.2-40.7c13.9,0,22.1,6.1,22.1,17.9c0,6.5-2.3,16.3-4.9,27.1h17.9
		c3.2-13.5,6.8-26,8.5-31.3c2.3-7.4,16.5-11.4,20.8-11.4c1.7,0,2.9,0.7,2.9,2.3c0,1.6-3.2,5.1-4.9,9.7
		c-4.8,12.3-13.5,53.1-13.5,62.5C511.1,362.7,512.7,365.7,515.9,365.7z"/>
	<path class="st0" d="M522.8,365.4c0-9.3,4.8-18.7,4.8-23.9c0-2.5-0.9-2.7-0.9-4.6c0-3.2,7.7-5.4,16.1-5.4c3.2,0,4.9,1.3,4.9,3.8
		c0,5.8-4.6,14.9-4.6,24.5c0,3.8,2.2,5.9,4.8,5.9c2.5,0,3.6-1.2,5.5-3c1-1,1.6-1.4,2.5-1.4c1.3,0,2,1.2,2,2c0,1.6-0.9,2.7-2.3,4.6
		c-3,3.9-9.3,9.5-18.4,9.5C527.6,377.4,522.8,372.1,522.8,365.4z M542.1,304.2c5.2,0,8.1,3.3,8.1,7.7c0,5.8-5.2,12-10.7,12
		c-4.5,0-8.1-3.5-8.1-7.8C531.4,310.3,536.6,304.2,542.1,304.2z"/>
	<path class="st0" d="M572.6,373.6c0,2.5-1,3-3.2,3c-4.3,0-10,0.7-12.2,0.7c-1.9,0-3-0.7-3-3.2c0-5.4,6.1-24.9,6.1-32.7
		c0-2.5-1-2.7-1-4.6c0-3.2,7.8-5.4,16.2-5.4c3.2,0,4.9,1.3,4.9,3.8c0,2.3-0.9,6.2-0.9,6.2s3.9-9.4,12.7-9.4c4.1,0,6.7,2.5,6.7,6.8
		c0,5.4-3.5,11.4-9.4,11.4c-4.1,0-6.1-2.9-6.1-5.5c-0.9,0.3-2.7,2.2-4.9,6.2C575.9,356,572.6,368,572.6,373.6z"/>
	<path class="st0" d="M644.5,377.4c-8.7,0-11.1-7.7-11.1-7.7s-7.7,7.7-18.2,7.7c-8.5,0-15.5-5.8-15.5-16.9
		c0-14.3,8.7-28.9,29.4-28.9c7.7,0,9.8,2.7,12.2,2.7c2.5,0,8.7-2.7,12-2.7c1.3,0,2.2,0.6,2.2,2.2c0,3.5-5.1,14.8-5.1,26
		c0,3.8,2.3,5.9,4.9,5.9c2.5,0,3.6-1.2,5.5-3c1-1,1.6-1.4,2.5-1.4c1.3,0,2,1.2,2,2c0,1.6-0.9,2.7-2.3,4.6
		C659.8,371.8,653.6,377.4,644.5,377.4z M630.3,337.9c-8.2,0-11.9,15.2-11.9,23.1c0,3.8,1.7,6.8,4.9,6.8c2.7,0,5.6-2.5,7.5-6.8
		c1.7-3.8,3.8-13.3,3.8-19C634.7,339.5,633.4,337.9,630.3,337.9z"/>
	<path class="st0" d="M694,366.3c0-8.8,4.6-14.6,4.6-20.3c0-2.3-1.3-4.1-3.3-4.1c-2.5,0-5.9,2.5-9.1,8.8c-2.5,4.9-6.2,17.2-6.2,22.9
		c0,2.5-1,3-3.2,3c-4.3,0-10,0.7-12.2,0.7c-1.9,0-3-0.7-3-3.2c0-5.4,6.1-24.9,6.1-32.7c0-2.5-1-2.7-1-4.6c0-3.2,7.8-5.4,16.2-5.4
		c3.2,0,4.9,1.3,4.9,3.8c0,2.3-1.2,6.5-1.2,6.5c2.6-3.2,11.1-10.3,19.7-10.3c8,0,11.1,3.6,11.1,9.1c0,6.7-4.1,13.9-4.1,19.8
		c0,3.8,2,5.2,4.6,5.2c2.5,0,3.6-1.2,5.5-3c1-1,1.6-1.4,2.5-1.4c1.3,0,2,1.2,2,2c0,1.6-0.9,2.7-2.3,4.6c-3,3.9-9.3,9.5-18.4,9.5
		C699,377.4,694,372.5,694,366.3z"/>
	<path class="st0" d="M774.1,347.9c0,16.2-10.3,30.1-28.1,30.1c-12.7,0-21-7.4-21-19c0-14,11.1-28.1,31-28.1
		C766.8,331,774.1,337.9,774.1,347.9z M760.5,350.9c-4.5-1.7-5.8-3.3-5.8-5.9c0-3.6,2.2-4.8,2.2-5.6c0-0.7-0.4-1.2-1.3-1.2
		c-0.6,0-2,0.4-4.1,2c-3.6,2.9-7.1,8.2-7.1,16.5c0,6.5,3.8,10.7,9.4,10.7c5.8,0,9.5-5.9,9.5-11C763.4,354,762.6,351.8,760.5,350.9z"
		/>
</g>
<g>
	<path class="st1" d="M221.5,353.1c2.9,0,5.1-2,6.9-3.9c1.3-1.3,2-1.6,2.7-1.6c0.9,0,1.6,0.7,1.6,1.6c0,5.6-11.1,18.2-22.4,18.2
		c-9.5,0-14-6.5-14-16.1c0-9.3,5.6-30.2,9.5-44.4h-1.2c-5.5,12.6-19.7,41.4-24.6,56.3c-0.7,2.5-1.7,4.2-3.9,4.2h-11.3
		c-1.7,0-2.9-0.7-2.9-3.2c0-1.6,2.9-44.7,2.9-57.3c0,0-1,0-1.2,0c-4.3,22.7-13.3,66-44,66c-13,0-19.5-8.8-19.5-19
		c0-10.6,10.9-18.5,16.3-18.5c1.4,0,2,0.7,2,1.7c0,1.7-1,2.9-1,6.2c0,3.6,2.5,7.4,7.7,7.4c20.3,0,30.8-48.2,30.8-63.9
		c0-4.5-3.2-8-6.8-8c-8.1,0-19.1,12.7-19.1,24.5c0,4.8,2.7,6.9,5.8,6.9c1.9,0,3.6-1.2,4.5-1.2c1,0,1.6,0.6,1.6,1.6
		c0,4.3-7.8,14.8-18.5,14.8c-8.5,0-15-6.4-15-16.5c0-24.6,24.9-38.2,43-38.2c30.1,0,31.3,29.1,31.3,50.2c0,7.1-0.1,12.3-0.1,12.3
		s19.5-44.3,26-52.2c2.5-3.2,12.3-6.8,22-6.8c1.6,0,2.6,1,2.6,2.6c0,1.6-2.7,5.1-4.5,9.5c-4.8,12.3-12.4,49-12.4,58.7
		C216.3,350.2,218.3,353.1,221.5,353.1z"/>
	<path class="st1" d="M231.7,355.4c0-9.3,4.8-18.7,4.8-23.9c0-2.5-0.9-2.7-0.9-4.6c0-3.2,7.7-5.4,16.1-5.4c3.2,0,4.9,1.3,4.9,3.8
		c0,5.8-4.6,14.9-4.6,24.5c0,3.8,2.2,5.9,4.8,5.9c2.5,0,3.6-1.2,5.5-3c1-1,1.6-1.4,2.5-1.4c1.3,0,2,1.2,2,2c0,1.6-0.9,2.7-2.3,4.6
		c-3,3.9-9.3,9.5-18.4,9.5C236.4,367.4,231.7,362.1,231.7,355.4z M250.9,294.2c5.2,0,8.1,3.3,8.1,7.7c0,5.8-5.2,12-10.7,12
		c-4.5,0-8.1-3.5-8.1-7.8C240.2,300.3,245.4,294.2,250.9,294.2z"/>
	<path class="st1" d="M271.4,326.9c0-3.2,7.8-5.4,16.1-5.4c3.3,0,4.9,1.3,4.9,3.8c0,6.4-5.1,17.1-5.1,26c0,2.5,1.4,4.5,3.8,4.5
		c3.3,0,6.9-2.9,9.1-6.1c2.9-4.3,4.2-13,4.2-18.2c0-2.5-1-2.7-1-4.6c0-3.2,7.8-5.4,16.1-5.4c3.3,0,4.9,1.3,4.9,3.8
		c0,3.6-1.6,5.2-5.6,28.9c-3.8,22.1-8.4,54.1-34.6,54.1c-10.6,0-19.7-6.1-19.7-16.2c0-11.6,9.3-16.3,12.6-16.3c1,0,1.6,0.4,1.6,1.3
		c0,1.4-1.3,2.2-1.3,5.4c0,4.2,3.3,6.8,8.2,6.8c10.6,0,14.3-16.3,16.5-30.5c-3.5,3.3-10.6,8.7-22,8.7c-7.2,0-12.4-4.8-12.4-11.1
		c0-9.7,4.8-19.5,4.8-24.7C272.5,329.1,271.4,328.8,271.4,326.9z"/>
	<path class="st1" d="M384.1,356.6c1.7,0,2.9-0.6,4.1-1.4c1-0.7,1.3-1.2,2.2-1.2c1,0,1.4,0.7,1.4,1.6c0,1.2-0.7,2.3-1.7,3.6
		c-3.3,4.3-7.5,8.2-15,8.2c-11.4,0-12.7-8.8-12.7-8.8s-8.8,8.8-21.8,8.8c-7.2,0-11.4-5.2-11.4-11.1c0-9,4.9-19.5,4.9-24.7
		c0-2.5-1-2.7-1-4.6c0-3.2,7.8-5.4,16.2-5.4c3.2,0,4.9,1.3,4.9,3.8c0,6.7-5.4,16.3-5.4,26.9c0,2.2,1.4,3.6,3.5,3.6
		c3.2,0,6.8-2.5,8.7-5.9c3.2-5.6,5.1-13,5.1-18.4c0-2.5-1-2.7-1-4.6c0-3.2,7.8-5.4,16.2-5.4c3.2,0,4.9,1.3,4.9,3.8
		c0,5.6-5.1,16.5-5.1,25.9C381,354.8,382.4,356.6,384.1,356.6z"/>
</g>
<g>
	<g>
		<path class="st1" d="M509.4,357.9c2.5,0,3.6-1.2,5.5-3c1-1,1.6-1.4,2.5-1.4c1.3,0,2,1.2,2,2c0,1.6-0.9,2.7-2.3,4.6
			c-3,3.9-9.3,9.5-18.4,9.5c-9.5,0-14-6.5-14-16.1c0-6.4,1.7-17.1,4.2-27.9c-5.6,0-12.9,1-17.1,5.2c-4.3,4.3-10.1,27.1-10.1,35.4
			c0,2.5-1,3-3,3c-4.5,0-13.2,0.9-15.5,0.9c-1.7,0-2.9-0.9-2.9-3.3c0-12.3,18.4-57.9,18.4-79.7c0-4.2-2.5-6.1-6.4-6.1
			c-11.1,0-22.1,15.2-22.1,26.9c0,4.8,2.7,6.9,5.8,6.9c1.9,0,3.6-1.2,4.6-1.2c1,0,1.4,0.6,1.4,1.6c0,4.3-7.8,14.8-18.4,14.8
			c-8.7,0-15.2-6.4-15.2-16.5c0-24.6,24.9-40.7,47.2-40.7c13.9,0,22.1,6.1,22.1,17.9c0,6.5-2.3,16.3-4.9,27.1h17.9
			c3.2-13.5,6.8-26,8.5-31.3c2.3-7.4,16.5-11.4,20.8-11.4c1.7,0,2.9,0.7,2.9,2.3c0,1.6-3.2,5.1-4.9,9.7
			c-4.8,12.3-13.5,53.1-13.5,62.5C504.6,354.8,506.2,357.9,509.4,357.9z"/>
		<path class="st1" d="M516.4,357.6c0-9.3,4.8-18.7,4.8-23.9c0-2.5-0.9-2.7-0.9-4.6c0-3.2,7.7-5.4,16.1-5.4c3.2,0,4.9,1.3,4.9,3.8
			c0,5.8-4.6,14.9-4.6,24.5c0,3.8,2.2,5.9,4.8,5.9c2.5,0,3.6-1.2,5.5-3c1-1,1.6-1.4,2.5-1.4c1.3,0,2,1.2,2,2c0,1.6-0.9,2.7-2.3,4.6
			c-3,3.9-9.3,9.5-18.4,9.5C521.1,369.6,516.4,364.3,516.4,357.6z M535.6,296.4c5.2,0,8.1,3.3,8.1,7.7c0,5.8-5.2,12-10.7,12
			c-4.5,0-8.1-3.5-8.1-7.8C524.9,302.5,530.1,296.4,535.6,296.4z"/>
		<path class="st1" d="M566.1,365.8c0,2.5-1,3-3.2,3c-4.3,0-10,0.7-12.2,0.7c-1.9,0-3-0.7-3-3.2c0-5.4,6.1-24.9,6.1-32.7
			c0-2.5-1-2.7-1-4.6c0-3.2,7.8-5.4,16.2-5.4c3.2,0,4.9,1.3,4.9,3.8c0,2.3-0.9,6.2-0.9,6.2s3.9-9.4,12.7-9.4c4.1,0,6.7,2.5,6.7,6.8
			c0,5.4-3.5,11.4-9.4,11.4c-4.1,0-6.1-2.9-6.1-5.5c-0.9,0.3-2.7,2.2-4.9,6.2C569.5,348.2,566.1,360.2,566.1,365.8z"/>
		<path class="st1" d="M638,369.6c-8.7,0-11.1-7.7-11.1-7.7s-7.7,7.7-18.2,7.7c-8.5,0-15.5-5.8-15.5-16.9c0-14.3,8.7-28.9,29.4-28.9
			c7.7,0,9.8,2.7,12.2,2.7c2.5,0,8.7-2.7,12-2.7c1.3,0,2.2,0.6,2.2,2.2c0,3.5-5.1,14.8-5.1,26c0,3.8,2.3,5.9,4.9,5.9
			c2.5,0,3.6-1.2,5.5-3c1-1,1.6-1.4,2.5-1.4c1.3,0,2,1.2,2,2c0,1.6-0.9,2.7-2.3,4.6C653.4,364,647.2,369.6,638,369.6z M623.9,330.1
			c-8.2,0-11.9,15.2-11.9,23.1c0,3.8,1.7,6.8,4.9,6.8c2.7,0,5.6-2.5,7.5-6.8c1.7-3.8,3.8-13.3,3.8-19
			C628.2,331.7,626.9,330.1,623.9,330.1z"/>
		<path class="st1" d="M687.5,358.5c0-8.8,4.6-14.6,4.6-20.3c0-2.3-1.3-4.1-3.3-4.1c-2.5,0-5.9,2.5-9.1,8.8
			c-2.5,4.9-6.2,17.2-6.2,22.9c0,2.5-1,3-3.2,3c-4.3,0-10,0.7-12.2,0.7c-1.9,0-3-0.7-3-3.2c0-5.4,6.1-24.9,6.1-32.7
			c0-2.5-1-2.7-1-4.6c0-3.2,7.8-5.4,16.2-5.4c3.2,0,4.9,1.3,4.9,3.8c0,2.3-1.2,6.5-1.2,6.5c2.6-3.2,11.1-10.3,19.7-10.3
			c8,0,11.1,3.6,11.1,9.1c0,6.7-4.1,13.9-4.1,19.8c0,3.8,2,5.2,4.6,5.2c2.5,0,3.6-1.2,5.5-3c1-1,1.6-1.4,2.5-1.4c1.3,0,2,1.2,2,2
			c0,1.6-0.9,2.7-2.3,4.6c-3,3.9-9.3,9.5-18.4,9.5C692.6,369.6,687.5,364.7,687.5,358.5z"/>
		<path class="st1" d="M767.7,340.1c0,16.2-10.3,30.1-28.1,30.1c-12.7,0-21-7.4-21-19c0-14,11.1-28.1,31-28.1
			C760.3,323.2,767.7,330.1,767.7,340.1z M754.1,343.1c-4.5-1.7-5.8-3.3-5.8-5.9c0-3.6,2.2-4.8,2.2-5.6c0-0.7-0.4-1.2-1.3-1.2
			c-0.6,0-2,0.4-4.1,2c-3.6,2.9-7.1,8.2-7.1,16.5c0,6.5,3.8,10.7,9.4,10.7c5.8,0,9.5-5.9,9.5-11C757,346.2,756.1,344,754.1,343.1z"
			/>
	</g>
</g>
<g>
	<path class="st1" d="M345.4,249.9c-14.2,0-24.7-9-24.7-21.4c0-13.6,12-21,22-21c3.6,0,4.9,0.9,4.9,1.9c0,1.3-0.7,1.7-1.9,2
		c-3.3,1-6.9,4.8-6.9,9.1c0,4.9,3.6,8.5,8.8,8.5c23.1,0,16.2-57.9,26.8-64.1c-10.9,4.1-20.7,10.7-20.7,22c0,3.6,1.2,6.1,3.5,7.7
		c1.6,1,2.2,1.2,2.2,2.3c0,1-1.4,2.2-4.3,2.2c-8.4,0-19.4-6.1-19.4-16.3c0-13.9,20-18.5,35-23.7c4.2-1.4,5.6-4.5,8.4-5.2
		c4.1-1.2,7.1-1.6,9-1.6c1.7,0,2.9,0.6,2.9,2.2c0,1.4-0.9,3-3.2,8.5C381,179,389.2,249.9,345.4,249.9z"/>
	<path class="st1" d="M429.4,151.2c5.2,0,7.7,2.9,7.7,7.8c0,10.4-13.3,21.4-16.2,21.4c-1.3,0-2.2-0.7-2.2-1.9
		c0-2.6,4.6-5.6,4.6-12.9c0-2.6-1.6-3.8-1.6-6.8C421.8,154.6,424.7,151.2,429.4,151.2z"/>
	<path class="st1" d="M514.9,237.8c0-8.8,4.6-14.6,4.6-20.3c0-2.7-1.3-4.1-3.5-4.1c-2.7,0-5.9,2.5-8.8,8.1c-3,5.8-6.4,16.6-6.4,23.6
		c0,2.5-0.9,3-3,3c-4.5,0-10.1,0.7-12.6,0.7c-1.7,0-2.9-0.7-2.9-3.2c0-8.5,5.4-21.8,5.4-27.9c0-2.6-1-4.3-3.2-4.3
		c-2.6,0-6.7,2.7-10.1,8.8c-2.7,4.8-6.2,17.2-6.2,22.9c0,2.5-1,3-3.2,3c-4.3,0-10,0.7-12.2,0.7c-1.9,0-3-0.7-3-3.2
		c0-5.4,6.1-24.9,6.1-32.7c0-2.5-1-2.7-1-4.6c0-3.2,7.8-5.4,16.2-5.4c3.2,0,4.9,1.3,4.9,3.8c0,2.3-1.2,6.5-1.2,6.5
		c1.4-1.6,9-10.3,20-10.3c9,0,11.4,6.9,11.9,9.1c1.2-1.2,8.8-9.1,19.4-9.1c8.4,0,12.3,3.5,12.3,9.8c0,6.2-4.1,13.7-4.1,20.3
		c0,3.8,1.4,4.9,3.5,4.9c1.7,0,2.6-0.6,3.8-1.4c0.9-0.7,1.2-1.2,2-1.2c1,0,1.6,0.7,1.6,1.6c0,1.2-0.7,2.3-1.7,3.6
		c-3.3,4.3-8.2,8.2-15.8,8.2C519.4,248.9,514.9,243.8,514.9,237.8z"/>
</g>
</svg>
