<?xml version="1.0" encoding="utf-8"?>
<!-- Generator: Adobe Illustrator 26.3.1, SVG Export Plug-In . SVG Version: 6.00 Build 0)  -->
<svg version="1.1" id="レイヤー_1" xmlns="http://www.w3.org/2000/svg" xmlns:xlink="http://www.w3.org/1999/xlink" x="0px"
	 y="0px" viewBox="0 0 841.9 595.3" style="enable-background:new 0 0 841.9 595.3;" xml:space="preserve">
<style type="text/css">
	.st0{fill:#EDADB5;stroke:#EDADB5;stroke-width:5;stroke-miterlimit:10;}
	.st1{fill:#FFFFFF;}
</style>
<g>
	<path class="st0" d="M230.9,276.6c0-1.9,1.2-2.9,4.4-3.9c16-5.2,26.3-22,26.3-43.1c0-12.8-6.2-19.5-14.1-21.6
		c-2.5,2.3-6,7-9.3,17.4c-14.3,45.4-25.7,95.1-25.7,105.5c0,3.5-1.2,4.4-4.4,4.4c-6.2,0-18.9,1.2-22.2,1.2c-2.5,0-3.9-1.2-3.9-4.8
		c0-11.8,19.9-79,26.9-101.3c4.6-14.3,9.5-18.4,15.1-22.4c-27.1,1.7-46.8,21.8-46.8,35.6c0,6.6,3.1,9.7,8.5,9.7c2.7,0,6-1.5,7-1.5
		c1.5,0,2.1,0.8,2.1,2.3c0,5.8-11.6,21.1-28,21.1c-12.8,0-22.2-8.3-22.2-22.8c0-32.5,41-55.3,94.1-55.3c29.4,0,51.8,12.4,51.8,33.8
		c0,31.3-29.6,48.7-56,48.7C232.4,279.7,230.9,278.5,230.9,276.6z"/>
	<path class="st0" d="M329.8,293.4c0,23.2-14.7,43.1-40.2,43.1c-18.2,0-30.1-10.6-30.1-27.1c0-20.1,16-40.2,44.4-40.2
		C319.2,269.1,329.8,279.1,329.8,293.4z M310.3,297.7c-6.4-2.5-8.3-4.8-8.3-8.5c0-5.2,3.1-6.8,3.1-8.1c0-1-0.6-1.7-1.9-1.7
		c-0.8,0-2.9,0.6-5.8,2.9c-5.2,4.1-10.2,11.8-10.2,23.6c0,9.3,5.4,15.3,13.5,15.3c8.3,0,13.7-8.5,13.7-15.8
		C314.4,302.1,313.2,299,310.3,297.7z"/>
	<path class="st0" d="M359.2,330.3c0,3.5-1.5,4.4-4.6,4.4c-6.2,0-14.3,1-17.4,1c-2.7,0-4.4-1-4.4-4.6c0-7.7,8.7-35.6,8.7-46.8
		c0-3.5-1.5-3.9-1.5-6.6c0-4.6,11.2-7.7,23.2-7.7c4.6,0,7,1.9,7,5.4c0,3.3-1.2,8.9-1.2,8.9s5.6-13.5,18.2-13.5
		c5.8,0,9.5,3.5,9.5,9.7c0,7.7-5,16.4-13.5,16.4c-5.8,0-8.7-4.1-8.7-7.9c-1.2,0.4-3.9,3.1-7,8.9C364,305,359.2,322.2,359.2,330.3z"
		/>
	<path class="st0" d="M430.1,287c-1.7,6-4.4,16.6-4.4,23.4c0,6.2,3.1,8.5,8.1,8.5c6,0,12.4-8.7,15.3-8.7c1.7,0,2.7,1.2,2.7,2.5
		c0,6-17.8,23-33.6,23c-14.9,0-21.3-8.9-21.3-19.9c0-13.3,6.4-23.6,6.4-34c0-2.7-5.6-1-5.6-4.8c0-2.1,1.2-6,3.5-6
		c11,0,21.1-10.8,26.5-19.5c2.1-3.3,3.7-4.6,5.6-4.6c2.3,0,3.3,1.7,3.3,3.3c0,4.6-2.9,13.1-2.9,16.6c0,2.7,0.8,4.1,7,4.1
		c1.7,0,2.9,0.6,2.9,2.3c0,4.1-2.3,7-4.8,7C433.8,280.3,431.5,282,430.1,287z"/>
	<path class="st0" d="M488.9,261.5c0,6.4,2.1,9.5,16.2,9.5c1.2,0,2.9,0.6,2.9,2.3c0,4.1-2.3,7-4.8,7c-14.1,0-18.4,4.1-20.1,12.6
		c-2.7,13.9-7.3,36.3-10.6,48.3c-3.9,15.3-26.7,25.3-33.4,25.3c-2.9,0-3.9-0.8-3.9-2.9c0-1.5,1.7-3.3,2.9-5
		c2.7-3.7,5.4-8.5,7.5-16.4c4.6-16.6,11-55.5,11-58.4c0-2.5-1-3.7-4.1-3.7c-2.1,0-3.3-1.2-3.3-2.9c0-2.9,2.7-6.2,4.6-6.2
		c4.1,0,5.2-1.2,6.2-5.4c6.8-29,24.9-34.4,38.5-34.4c13.5,0,20.5,6.2,20.5,13.7c0,6.8-4.6,11-10.6,11c-10.8,0-6.4-12.6-11.2-12.6
		C492,243.2,488.9,255.9,488.9,261.5z"/>
	<path class="st0" d="M568.5,293.4c0,23.2-14.7,43.1-40.2,43.1c-18.2,0-30-10.6-30-27.1c0-20.1,16-40.2,44.4-40.2
		C558,269.1,568.5,279.1,568.5,293.4z M549,297.7c-6.4-2.5-8.3-4.8-8.3-8.5c0-5.2,3.1-6.8,3.1-8.1c0-1-0.6-1.7-1.9-1.7
		c-0.8,0-2.9,0.6-5.8,2.9C531,286.5,526,294.2,526,306c0,9.3,5.4,15.3,13.5,15.3c8.3,0,13.7-8.5,13.7-15.8
		C553.2,302.1,551.9,299,549,297.7z"/>
	<path class="st0" d="M572.7,316.2c0-18.9,16-45.4,16-77.5c0-6.8-3.5-10.2-8.1-10.2c-1.9,0-2.9-0.8-2.9-2.5c0-4.4,11-11.2,22.8-11.2
		c10.8,0,17.6,5.8,17.6,16.2c0,17.4-16.6,59.5-16.6,79.4c0,5.4,2.9,8.5,6.6,8.5c3.5,0,5.2-1.7,7.9-4.4c1.5-1.5,2.3-2.1,3.5-2.1
		c1.9,0,2.9,1.7,2.9,2.9c0,2.3-1.2,3.9-3.3,6.6c-4.4,5.6-13.1,13.7-26.1,13.7C579.1,335.7,572.7,327,572.7,316.2z"/>
	<path class="st0" d="M617.2,318.5c0-13.3,6.8-26.7,6.8-34.2c0-3.5-1.2-3.9-1.2-6.6c0-4.6,11-7.7,23-7.7c4.6,0,7,1.9,7,5.4
		c0,8.3-6.6,21.3-6.6,35c0,5.4,3.1,8.5,6.8,8.5c3.5,0,5.2-1.7,7.9-4.4c1.5-1.5,2.3-2.1,3.5-2.1c1.9,0,2.9,1.7,2.9,2.9
		c0,2.3-1.2,3.9-3.3,6.6c-4.4,5.6-13.3,13.7-26.3,13.7C624.1,335.7,617.2,328,617.2,318.5z M644.8,230.8c7.5,0,11.6,4.8,11.6,11
		c0,8.3-7.5,17.2-15.3,17.2c-6.4,0-11.6-5-11.6-11.2C629.4,239.5,636.9,230.8,644.8,230.8z"/>
	<path class="st0" d="M732.4,293.4c0,23.2-14.7,43.1-40.2,43.1c-18.2,0-30-10.6-30-27.1c0-20.1,16-40.2,44.4-40.2
		C721.9,269.1,732.4,279.1,732.4,293.4z M713,297.7c-6.4-2.5-8.3-4.8-8.3-8.5c0-5.2,3.1-6.8,3.1-8.1c0-1-0.6-1.7-1.9-1.7
		c-0.8,0-2.9,0.6-5.8,2.9c-5.2,4.1-10.2,11.8-10.2,23.6c0,9.3,5.4,15.3,13.5,15.3c8.3,0,13.7-8.5,13.7-15.8
		C717.1,302.1,715.9,299,713,297.7z"/>
</g>
<g>
	<path class="st1" d="M215.6,268.8c0-1.9,1.2-2.9,4.4-3.9c16-5.2,26.3-22,26.3-43.1c0-12.8-6.2-19.5-14.1-21.6
		c-2.5,2.3-6,7-9.3,17.4c-14.3,45.4-25.7,95.1-25.7,105.5c0,3.5-1.2,4.4-4.4,4.4c-6.2,0-18.9,1.2-22.2,1.2c-2.5,0-3.9-1.2-3.9-4.8
		c0-11.8,19.9-79,26.9-101.3c4.6-14.3,9.5-18.4,15.1-22.4c-27.1,1.7-46.8,21.8-46.8,35.6c0,6.6,3.1,9.7,8.5,9.7c2.7,0,6-1.5,7-1.5
		c1.5,0,2.1,0.8,2.1,2.3c0,5.8-11.6,21.1-28,21.1c-12.8,0-22.2-8.3-22.2-22.8c0-32.5,41-55.3,94.1-55.3c29.4,0,51.8,12.4,51.8,33.8
		c0,31.3-29.6,48.7-56,48.7C217.1,271.9,215.6,270.7,215.6,268.8z"/>
	<path class="st1" d="M314.5,285.6c0,23.2-14.7,43.1-40.2,43.1c-18.2,0-30.1-10.6-30.1-27.1c0-20.1,16-40.2,44.4-40.2
		C303.9,261.3,314.5,271.3,314.5,285.6z M295,289.9c-6.4-2.5-8.3-4.8-8.3-8.5c0-5.2,3.1-6.8,3.1-8.1c0-1-0.6-1.7-1.9-1.7
		c-0.8,0-2.9,0.6-5.8,2.9c-5.2,4.1-10.2,11.8-10.2,23.6c0,9.3,5.4,15.3,13.5,15.3c8.3,0,13.7-8.5,13.7-15.8
		C299.1,294.3,297.9,291.2,295,289.9z"/>
	<path class="st1" d="M343.9,322.5c0,3.5-1.5,4.4-4.6,4.4c-6.2,0-14.3,1-17.4,1c-2.7,0-4.4-1-4.4-4.6c0-7.7,8.7-35.6,8.7-46.8
		c0-3.5-1.5-3.9-1.5-6.6c0-4.6,11.2-7.7,23.2-7.7c4.6,0,7,1.9,7,5.4c0,3.3-1.2,8.9-1.2,8.9s5.6-13.5,18.2-13.5
		c5.8,0,9.5,3.5,9.5,9.7c0,7.7-5,16.4-13.5,16.4c-5.8,0-8.7-4.1-8.7-7.9c-1.2,0.4-3.9,3.1-7,8.9
		C348.7,297.2,343.9,314.4,343.9,322.5z"/>
	<path class="st1" d="M414.8,279.2c-1.7,6-4.4,16.6-4.4,23.4c0,6.2,3.1,8.5,8.1,8.5c6,0,12.4-8.7,15.3-8.7c1.7,0,2.7,1.2,2.7,2.5
		c0,6-17.8,23-33.6,23c-14.9,0-21.3-8.9-21.3-19.9c0-13.3,6.4-23.6,6.4-34c0-2.7-5.6-1-5.6-4.8c0-2.1,1.2-6,3.5-6
		c11,0,21.1-10.8,26.5-19.5c2.1-3.3,3.7-4.6,5.6-4.6c2.3,0,3.3,1.7,3.3,3.3c0,4.6-2.9,13.1-2.9,16.6c0,2.7,0.8,4.1,7,4.1
		c1.7,0,2.9,0.6,2.9,2.3c0,4.1-2.3,7-4.8,7C418.5,272.5,416.2,274.2,414.8,279.2z"/>
	<path class="st1" d="M473.6,253.7c0,6.4,2.1,9.5,16.2,9.5c1.2,0,2.9,0.6,2.9,2.3c0,4.1-2.3,7-4.8,7c-14.1,0-18.4,4.1-20.1,12.6
		c-2.7,13.9-7.3,36.3-10.6,48.3c-3.9,15.3-26.7,25.3-33.4,25.3c-2.9,0-3.9-0.8-3.9-2.9c0-1.5,1.7-3.3,2.9-5
		c2.7-3.7,5.4-8.5,7.5-16.4c4.6-16.6,11-55.5,11-58.4c0-2.5-1-3.7-4.1-3.7c-2.1,0-3.3-1.2-3.3-2.9c0-2.9,2.7-6.2,4.6-6.2
		c4.1,0,5.2-1.2,6.2-5.4c6.8-29,24.9-34.4,38.5-34.4c13.5,0,20.5,6.2,20.5,13.7c0,6.8-4.6,11-10.6,11c-10.8,0-6.4-12.6-11.2-12.6
		C476.7,235.4,473.6,248.1,473.6,253.7z"/>
	<path class="st1" d="M553.2,285.6c0,23.2-14.7,43.1-40.2,43.1c-18.2,0-30-10.6-30-27.1c0-20.1,16-40.2,44.4-40.2
		C542.6,261.3,553.2,271.3,553.2,285.6z M533.7,289.9c-6.4-2.5-8.3-4.8-8.3-8.5c0-5.2,3.1-6.8,3.1-8.1c0-1-0.6-1.7-1.9-1.7
		c-0.8,0-2.9,0.6-5.8,2.9c-5.2,4.1-10.2,11.8-10.2,23.6c0,9.3,5.4,15.3,13.5,15.3c8.3,0,13.7-8.5,13.7-15.8
		C537.9,294.3,536.6,291.2,533.7,289.9z"/>
	<path class="st1" d="M557.4,308.4c0-18.9,16-45.4,16-77.5c0-6.8-3.5-10.2-8.1-10.2c-1.9,0-2.9-0.8-2.9-2.5c0-4.4,11-11.2,22.8-11.2
		c10.8,0,17.6,5.8,17.6,16.2c0,17.4-16.6,59.5-16.6,79.4c0,5.4,2.9,8.5,6.6,8.5c3.5,0,5.2-1.7,7.9-4.4c1.5-1.5,2.3-2.1,3.5-2.1
		c1.9,0,2.9,1.7,2.9,2.9c0,2.3-1.2,3.9-3.3,6.6c-4.4,5.6-13.1,13.7-26.1,13.7C563.8,327.9,557.4,319.2,557.4,308.4z"/>
	<path class="st1" d="M601.9,310.7c0-13.3,6.8-26.7,6.8-34.2c0-3.5-1.2-3.9-1.2-6.6c0-4.6,11-7.7,23-7.7c4.6,0,7,1.9,7,5.4
		c0,8.3-6.6,21.3-6.6,35c0,5.4,3.1,8.5,6.8,8.5c3.5,0,5.2-1.7,7.9-4.4c1.5-1.5,2.3-2.1,3.5-2.1c1.9,0,2.9,1.7,2.9,2.9
		c0,2.3-1.2,3.9-3.3,6.6c-4.4,5.6-13.3,13.7-26.3,13.7C608.7,327.9,601.9,320.2,601.9,310.7z M629.5,223c7.5,0,11.6,4.8,11.6,11
		c0,8.3-7.5,17.2-15.3,17.2c-6.4,0-11.6-5-11.6-11.2C614.1,231.7,621.6,223,629.5,223z"/>
	<path class="st1" d="M717.1,285.6c0,23.2-14.7,43.1-40.2,43.1c-18.2,0-30-10.6-30-27.1c0-20.1,16-40.2,44.4-40.2
		C706.6,261.3,717.1,271.3,717.1,285.6z M697.7,289.9c-6.4-2.5-8.3-4.8-8.3-8.5c0-5.2,3.1-6.8,3.1-8.1c0-1-0.6-1.7-1.9-1.7
		c-0.8,0-2.9,0.6-5.8,2.9c-5.2,4.1-10.2,11.8-10.2,23.6c0,9.3,5.4,15.3,13.5,15.3c8.3,0,13.7-8.5,13.7-15.8
		C701.8,294.3,700.6,291.2,697.7,289.9z"/>
</g>
</svg>
