<?xml version="1.0" encoding="utf-8"?>
<!-- Generator: Adobe Illustrator 26.3.1, SVG Export Plug-In . SVG Version: 6.00 Build 0)  -->
<svg version="1.1" id="レイヤー_1" xmlns="http://www.w3.org/2000/svg" xmlns:xlink="http://www.w3.org/1999/xlink" x="0px"
	 y="0px" viewBox="0 0 841.9 595.3" style="enable-background:new 0 0 841.9 595.3;" xml:space="preserve">
<style type="text/css">
	.st0{fill:#EDADB5;stroke:#EDADB5;stroke-width:5;stroke-miterlimit:10;}
	.st1{fill:#FFFFFF;}
</style>
<g>
	<path class="st0" d="M231.5,221c-18.4,0-36.5,25.1-36.5,44.4c0,7.9,4.5,11.5,9.6,11.5c3.1,0,6-1.9,7.6-1.9s2.4,1,2.4,2.6
		c0,7.2-12.9,24.4-30.3,24.4c-14.3,0-25.1-10.5-25.1-27.2c0-40.6,41.1-67.1,77.8-67.1c22.9,0,37.7,11.9,37.7,31.8
		c0,33.9-19.8,64.5-19.8,88.1c0,6.4,4.1,10.5,9.1,10.5c8.1,0,17.2-6.4,25.8-20.8c9.1-14.8,16.7-44.9,16.7-52.5
		c0-3.3-0.5-4.3-0.5-8.1c0-7.4,21.5-14.6,26.5-14.6c6,0,8.6,2.6,8.6,8.8c0,16.5-16.7,58-16.7,75.2c0,7.6,3.1,11.9,9.8,11.9
		c12.2,0,22.2-14.6,31.3-34.9c7.9-17.4,10.3-37.7,10.3-51.3c0-17.2-7.6-22.9-15.5-22.9c-2.4,0-4.1-1.2-4.1-3.6
		c0-5.3,11.2-17.7,26.7-17.7c16.2,0,23.2,9.8,23.2,24.8c0,19.8-10.5,51.3-24.4,79.3c-14.8,30.6-38,56.6-60.4,56.6
		c-17.2,0-27.5-12.4-29.6-28.9c-8.1,10.7-25.5,28.9-49.4,28.9c-18.1,0-27-12.4-27-28.4c0-33.2,26.7-66.6,26.7-108.9
		C242,224.1,238,221,231.5,221z"/>
	<path class="st0" d="M464.6,318.5c0,26.7-17,49.7-46.3,49.7c-21,0-34.6-12.2-34.6-31.3c0-23.2,18.4-46.3,51.1-46.3
		C452.4,290.5,464.6,302,464.6,318.5z M442.1,323.5c-7.4-2.9-9.6-5.5-9.6-9.8c0-6,3.6-7.9,3.6-9.3c0-1.2-0.7-1.9-2.1-1.9
		c-1,0-3.3,0.7-6.7,3.3c-6,4.8-11.7,13.6-11.7,27.2c0,10.7,6.2,17.7,15.5,17.7c9.6,0,15.8-9.8,15.8-18.1
		C446.9,328.5,445.5,324.9,442.1,323.5z"/>
	<path class="st0" d="M497.3,361c0,4.1-1.7,5-5.3,5c-7.2,0-16.5,1.2-20.1,1.2c-3.1,0-5-1.2-5-5.3c0-8.8,10-41.1,10-54
		c0-4.1-1.7-4.5-1.7-7.6c0-5.3,12.9-8.8,26.7-8.8c5.3,0,8.1,2.1,8.1,6.2c0,3.8-1.4,10.3-1.4,10.3s6.4-15.5,21-15.5
		c6.7,0,11,4.1,11,11.2c0,8.8-5.7,18.9-15.5,18.9c-6.7,0-10-4.8-10-9.1c-1.4,0.5-4.5,3.6-8.1,10.3
		C502.8,331.8,497.3,351.7,497.3,361z"/>
	<path class="st0" d="M623.1,342.8c1.7-1.7,2.6-2.4,4.1-2.4c2.1,0,3.3,1.9,3.3,3.3c0,2.6-1.4,4.5-3.8,7.6
		c-5.3,6.7-15.5,15.8-29.1,15.8c-20.8,0-22.2-31.8-24.6-31.8c0,0-5.7,21-5.7,25.5c0,4.1-1.4,5-5,5c-7.2,0-16.7,1.2-20.5,1.2
		c-2.9,0-4.5-1.2-4.5-5.3c0-20.8,21-70.9,21-106.5c0-7.9-4.1-11.7-9.1-11.7c-2.1,0-3.6-1-3.6-2.9c0-5,12.7-12.9,26.3-12.9
		c12.7,0,20.3,6.7,20.3,18.6c0,15-17,67.3-17,76.9c7.2,0,14.3-8.1,14.3-13.8c0-2.6-1.7-3.1-1.7-5.5c0-5,14.8-12.7,25.8-12.7
		c4.8,0,6.9,1.9,6.9,5.5c0,10-10.3,22.9-27.9,32.7c2.6,8.4,10.7,18.1,20.8,18.1C617.7,347.8,620,345.9,623.1,342.8z"/>
	<path class="st0" d="M648.2,343.5c0,6,2.1,10,6.4,10c3.3,0,5.3-2.1,5.3-6.4c0-14.1-23.6-16.2-23.6-34.1c0-15,15-22.7,33-22.7
		c17.4,0,25.3,6.7,25.3,16.5c0,6.4-3.3,12.2-11.2,12.2c-4.5,0-8.6-3.6-8.6-8.1c0-3.6,1.9-5,1.9-7.2c0-2.4-1.9-3.3-4.5-3.3
		c-3.1,0-6.9,3.3-6.9,7.9c0,14.1,26.3,16,26.3,33.4c0,15.5-12.4,26-33.4,26c-17.9,0-31-7.9-31-20.8c0-7.6,5.5-12.2,11-12.2
		C644.4,334.7,648.2,337.8,648.2,343.5z"/>
</g>
<g>
	<path class="st1" d="M215.6,210.4c-18.4,0-36.5,25.1-36.5,44.4c0,7.9,4.5,11.5,9.6,11.5c3.1,0,6-1.9,7.6-1.9s2.4,1,2.4,2.6
		c0,7.2-12.9,24.4-30.3,24.4c-14.3,0-25.1-10.5-25.1-27.2c0-40.6,41.1-67.1,77.8-67.1c22.9,0,37.7,11.9,37.7,31.8
		c0,33.9-19.8,64.5-19.8,88.1c0,6.4,4.1,10.5,9.1,10.5c8.1,0,17.2-6.4,25.8-20.8c9.1-14.8,16.7-44.9,16.7-52.5
		c0-3.3-0.5-4.3-0.5-8.1c0-7.4,21.5-14.6,26.5-14.6c6,0,8.6,2.6,8.6,8.8c0,16.5-16.7,58-16.7,75.2c0,7.6,3.1,11.9,9.8,11.9
		c12.2,0,22.2-14.6,31.3-34.9c7.9-17.4,10.3-37.7,10.3-51.3c0-17.2-7.6-22.9-15.5-22.9c-2.4,0-4.1-1.2-4.1-3.6
		c0-5.3,11.2-17.7,26.7-17.7c16.2,0,23.2,9.8,23.2,24.8c0,19.8-10.5,51.3-24.4,79.3c-14.8,30.6-38,56.6-60.4,56.6
		c-17.2,0-27.5-12.4-29.6-28.9c-8.1,10.7-25.5,28.9-49.4,28.9c-18.1,0-27-12.4-27-28.4c0-33.2,26.7-66.6,26.7-108.9
		C226.1,213.5,222.1,210.4,215.6,210.4z"/>
	<path class="st1" d="M448.7,307.9c0,26.7-17,49.7-46.3,49.7c-21,0-34.6-12.2-34.6-31.3c0-23.2,18.4-46.3,51.1-46.3
		C436.5,279.9,448.7,291.4,448.7,307.9z M426.2,312.9c-7.4-2.9-9.6-5.5-9.6-9.8c0-6,3.6-7.9,3.6-9.3c0-1.2-0.7-1.9-2.1-1.9
		c-1,0-3.3,0.7-6.7,3.3c-6,4.8-11.7,13.6-11.7,27.2c0,10.7,6.2,17.7,15.5,17.7c9.6,0,15.8-9.8,15.8-18.1
		C431,317.9,429.6,314.3,426.2,312.9z"/>
	<path class="st1" d="M481.4,350.4c0,4.1-1.7,5-5.3,5c-7.2,0-16.5,1.2-20.1,1.2c-3.1,0-5-1.2-5-5.3c0-8.8,10-41.1,10-54
		c0-4.1-1.7-4.5-1.7-7.6c0-5.3,12.9-8.8,26.7-8.8c5.3,0,8.1,2.1,8.1,6.2c0,3.8-1.4,10.3-1.4,10.3s6.4-15.5,21-15.5
		c6.7,0,11,4.1,11,11.2c0,8.8-5.7,18.9-15.5,18.9c-6.7,0-10-4.8-10-9.1c-1.4,0.5-4.5,3.6-8.1,10.3
		C486.9,321.2,481.4,341,481.4,350.4z"/>
	<path class="st1" d="M607.2,332.2c1.7-1.7,2.6-2.4,4.1-2.4c2.1,0,3.3,1.9,3.3,3.3c0,2.6-1.4,4.5-3.8,7.6
		c-5.3,6.7-15.5,15.8-29.1,15.8c-20.8,0-22.2-31.8-24.6-31.8c0,0-5.7,21-5.7,25.5c0,4.1-1.4,5-5,5c-7.2,0-16.7,1.2-20.5,1.2
		c-2.9,0-4.5-1.2-4.5-5.3c0-20.8,21-70.9,21-106.5c0-7.9-4.1-11.7-9.1-11.7c-2.1,0-3.6-1-3.6-2.9c0-5,12.7-12.9,26.3-12.9
		c12.7,0,20.3,6.7,20.3,18.6c0,15-17,67.3-17,76.9c7.2,0,14.3-8.1,14.3-13.8c0-2.6-1.7-3.1-1.7-5.5c0-5,14.8-12.7,25.8-12.7
		c4.8,0,6.9,1.9,6.9,5.5c0,10-10.3,22.9-27.9,32.7c2.6,8.4,10.7,18.1,20.8,18.1C601.7,337.2,604.1,335.3,607.2,332.2z"/>
	<path class="st1" d="M632.3,332.9c0,6,2.1,10,6.4,10c3.3,0,5.3-2.1,5.3-6.4c0-14.1-23.6-16.2-23.6-34.1c0-15,15-22.7,33-22.7
		c17.4,0,25.3,6.7,25.3,16.5c0,6.4-3.3,12.2-11.2,12.2c-4.5,0-8.6-3.6-8.6-8.1c0-3.6,1.9-5,1.9-7.2c0-2.4-1.9-3.3-4.5-3.3
		c-3.1,0-6.9,3.3-6.9,7.9c0,14.1,26.3,16,26.3,33.4c0,15.5-12.4,26-33.4,26c-17.9,0-31-7.9-31-20.8c0-7.6,5.5-12.2,11-12.2
		C628.5,324.1,632.3,327.2,632.3,332.9z"/>
</g>
</svg>
